<mxfile host="app.diagrams.net" modified="2022-02-15T11:09:02.135Z" agent="5.0 (Windows NT 10.0; Win64; x64) AppleWebKit/537.36 (KHTML, like Gecko) Chrome/98.0.4758.82 Safari/537.36" etag="riAm6G621VtF0wLGBZ42" version="16.5.6" type="github">
  <diagram id="pVhhnxMKM2QqhEdTGyPi" name="Page-1">
    <mxGraphModel dx="782" dy="436" grid="1" gridSize="10" guides="1" tooltips="1" connect="1" arrows="1" fold="1" page="1" pageScale="1" pageWidth="700" pageHeight="1000" math="0" shadow="0">
      <root>
        <mxCell id="0" />
        <mxCell id="1" parent="0" />
        <mxCell id="V_iwW__XcrFmSabZoZmK-1" value="Region" style="points=[[0,0],[0.25,0],[0.5,0],[0.75,0],[1,0],[1,0.25],[1,0.5],[1,0.75],[1,1],[0.75,1],[0.5,1],[0.25,1],[0,1],[0,0.75],[0,0.5],[0,0.25]];outlineConnect=0;gradientColor=none;html=1;whiteSpace=wrap;fontSize=12;fontStyle=0;container=1;pointerEvents=0;collapsible=0;recursiveResize=0;shape=mxgraph.aws4.group;grIcon=mxgraph.aws4.group_region.europe;strokeColor=#147EBA;fillColor=none;verticalAlign=top;align=left;spacingLeft=30;fontColor=#147EBA;dashed=1;" parent="1" vertex="1">
          <mxGeometry x="20" y="20" width="670" height="380" as="geometry" />
        </mxCell>
        <mxCell id="V_iwW__XcrFmSabZoZmK-2" value="VPC" style="points=[[0,0],[0.25,0],[0.5,0],[0.75,0],[1,0],[1,0.25],[1,0.5],[1,0.75],[1,1],[0.75,1],[0.5,1],[0.25,1],[0,1],[0,0.75],[0,0.5],[0,0.25]];outlineConnect=0;gradientColor=none;html=1;whiteSpace=wrap;fontSize=12;fontStyle=0;container=1;pointerEvents=0;collapsible=0;recursiveResize=0;shape=mxgraph.aws4.group;grIcon=mxgraph.aws4.group_vpc;strokeColor=#248814;fillColor=none;verticalAlign=top;align=left;spacingLeft=30;fontColor=#AAB7B8;dashed=0;" parent="V_iwW__XcrFmSabZoZmK-1" vertex="1">
          <mxGeometry x="20" y="20" width="620" height="350" as="geometry" />
        </mxCell>
        <object label="Availability Zone" id="V_iwW__XcrFmSabZoZmK-3">
          <mxCell style="fillColor=none;strokeColor=#147EBA;dashed=1;verticalAlign=top;fontStyle=0;fontColor=#147EBA;" parent="V_iwW__XcrFmSabZoZmK-2" vertex="1">
            <mxGeometry x="20" y="40" width="230" height="300" as="geometry" />
          </mxCell>
        </object>
        <mxCell id="V_iwW__XcrFmSabZoZmK-4" value="Availability Zone" style="fillColor=none;strokeColor=#147EBA;dashed=1;verticalAlign=top;fontStyle=0;fontColor=#147EBA;" parent="V_iwW__XcrFmSabZoZmK-2" vertex="1">
          <mxGeometry x="340" y="40" width="260" height="300" as="geometry" />
        </mxCell>
        <mxCell id="V_iwW__XcrFmSabZoZmK-5" value="Public subnet" style="points=[[0,0],[0.25,0],[0.5,0],[0.75,0],[1,0],[1,0.25],[1,0.5],[1,0.75],[1,1],[0.75,1],[0.5,1],[0.25,1],[0,1],[0,0.75],[0,0.5],[0,0.25]];outlineConnect=0;gradientColor=none;html=1;whiteSpace=wrap;fontSize=12;fontStyle=0;container=1;pointerEvents=0;collapsible=0;recursiveResize=0;shape=mxgraph.aws4.group;grIcon=mxgraph.aws4.group_security_group;grStroke=0;strokeColor=#248814;fillColor=#E9F3E6;verticalAlign=top;align=left;spacingLeft=30;fontColor=#248814;dashed=0;" parent="V_iwW__XcrFmSabZoZmK-2" vertex="1">
          <mxGeometry x="30" y="85" width="200" height="25" as="geometry" />
        </mxCell>
        <mxCell id="V_iwW__XcrFmSabZoZmK-6" value="Public subnet" style="points=[[0,0],[0.25,0],[0.5,0],[0.75,0],[1,0],[1,0.25],[1,0.5],[1,0.75],[1,1],[0.75,1],[0.5,1],[0.25,1],[0,1],[0,0.75],[0,0.5],[0,0.25]];outlineConnect=0;gradientColor=none;html=1;whiteSpace=wrap;fontSize=12;fontStyle=0;container=1;pointerEvents=0;collapsible=0;recursiveResize=0;shape=mxgraph.aws4.group;grIcon=mxgraph.aws4.group_security_group;grStroke=0;strokeColor=#248814;fillColor=#E9F3E6;verticalAlign=top;align=left;spacingLeft=30;fontColor=#248814;dashed=0;" parent="V_iwW__XcrFmSabZoZmK-2" vertex="1">
          <mxGeometry x="360" y="80" width="230" height="30" as="geometry" />
        </mxCell>
        <mxCell id="V_iwW__XcrFmSabZoZmK-79" value="" style="endArrow=classic;html=1;rounded=0;" parent="V_iwW__XcrFmSabZoZmK-6" edge="1">
          <mxGeometry width="50" height="50" relative="1" as="geometry">
            <mxPoint x="42.75" y="139.75" as="sourcePoint" />
            <mxPoint x="42.75" y="79.75" as="targetPoint" />
          </mxGeometry>
        </mxCell>
        <mxCell id="V_iwW__XcrFmSabZoZmK-84" value="" style="endArrow=none;html=1;rounded=0;" parent="V_iwW__XcrFmSabZoZmK-6" edge="1">
          <mxGeometry width="50" height="50" relative="1" as="geometry">
            <mxPoint x="40" y="110" as="sourcePoint" />
            <mxPoint x="90" y="110" as="targetPoint" />
          </mxGeometry>
        </mxCell>
        <mxCell id="V_iwW__XcrFmSabZoZmK-87" value="" style="endArrow=none;html=1;rounded=0;" parent="V_iwW__XcrFmSabZoZmK-6" edge="1">
          <mxGeometry width="50" height="50" relative="1" as="geometry">
            <mxPoint x="89.5" y="150" as="sourcePoint" />
            <mxPoint x="90" y="110" as="targetPoint" />
          </mxGeometry>
        </mxCell>
        <mxCell id="V_iwW__XcrFmSabZoZmK-9" value="Private subnet" style="points=[[0,0],[0.25,0],[0.5,0],[0.75,0],[1,0],[1,0.25],[1,0.5],[1,0.75],[1,1],[0.75,1],[0.5,1],[0.25,1],[0,1],[0,0.75],[0,0.5],[0,0.25]];outlineConnect=0;gradientColor=none;html=1;whiteSpace=wrap;fontSize=12;fontStyle=0;container=0;pointerEvents=0;collapsible=0;recursiveResize=0;shape=mxgraph.aws4.group;grIcon=mxgraph.aws4.group_security_group;grStroke=0;strokeColor=#147EBA;fillColor=#E6F2F8;verticalAlign=top;align=left;spacingLeft=30;fontColor=#147EBA;dashed=0;" parent="V_iwW__XcrFmSabZoZmK-2" vertex="1">
          <mxGeometry x="30" y="120" width="200" height="210" as="geometry" />
        </mxCell>
        <mxCell id="V_iwW__XcrFmSabZoZmK-11" value="Private subnet" style="points=[[0,0],[0.25,0],[0.5,0],[0.75,0],[1,0],[1,0.25],[1,0.5],[1,0.75],[1,1],[0.75,1],[0.5,1],[0.25,1],[0,1],[0,0.75],[0,0.5],[0,0.25]];outlineConnect=0;gradientColor=none;html=1;whiteSpace=wrap;fontSize=12;fontStyle=0;container=0;pointerEvents=0;collapsible=0;recursiveResize=0;shape=mxgraph.aws4.group;grIcon=mxgraph.aws4.group_security_group;grStroke=0;strokeColor=#147EBA;fillColor=#E6F2F8;verticalAlign=top;align=left;spacingLeft=30;fontColor=#147EBA;dashed=0;" parent="V_iwW__XcrFmSabZoZmK-2" vertex="1">
          <mxGeometry x="360" y="120" width="230" height="210" as="geometry" />
        </mxCell>
        <mxCell id="V_iwW__XcrFmSabZoZmK-39" value="" style="endArrow=classic;html=1;rounded=0;entryX=0;entryY=0;entryDx=0;entryDy=0;" parent="V_iwW__XcrFmSabZoZmK-2" target="V_iwW__XcrFmSabZoZmK-91" edge="1">
          <mxGeometry width="50" height="50" relative="1" as="geometry">
            <mxPoint x="430" y="380" as="sourcePoint" />
            <mxPoint x="440" y="320" as="targetPoint" />
          </mxGeometry>
        </mxCell>
        <mxCell id="V_iwW__XcrFmSabZoZmK-40" value="" style="endArrow=classic;html=1;rounded=0;entryX=1;entryY=0;entryDx=0;entryDy=0;" parent="V_iwW__XcrFmSabZoZmK-2" target="V_iwW__XcrFmSabZoZmK-91" edge="1">
          <mxGeometry width="50" height="50" relative="1" as="geometry">
            <mxPoint x="490" y="400" as="sourcePoint" />
            <mxPoint x="490" y="320" as="targetPoint" />
          </mxGeometry>
        </mxCell>
        <mxCell id="V_iwW__XcrFmSabZoZmK-97" value="" style="sketch=0;points=[[0,0,0],[0.25,0,0],[0.5,0,0],[0.75,0,0],[1,0,0],[0,1,0],[0.25,1,0],[0.5,1,0],[0.75,1,0],[1,1,0],[0,0.25,0],[0,0.5,0],[0,0.75,0],[1,0.25,0],[1,0.5,0],[1,0.75,0]];points=[[0,0,0],[0.25,0,0],[0.5,0,0],[0.75,0,0],[1,0,0],[0,1,0],[0.25,1,0],[0.5,1,0],[0.75,1,0],[1,1,0],[0,0.25,0],[0,0.5,0],[0,0.75,0],[1,0.25,0],[1,0.5,0],[1,0.75,0]];outlineConnect=0;fontColor=#232F3E;gradientColor=#F34482;gradientDirection=north;fillColor=#BC1356;strokeColor=#ffffff;dashed=0;verticalLabelPosition=bottom;verticalAlign=top;align=center;html=1;fontSize=12;fontStyle=0;aspect=fixed;shape=mxgraph.aws4.resourceIcon;resIcon=mxgraph.aws4.cloudwatch_2;" parent="V_iwW__XcrFmSabZoZmK-2" vertex="1">
          <mxGeometry x="260" y="10" width="60" height="60" as="geometry" />
        </mxCell>
        <mxCell id="V_iwW__XcrFmSabZoZmK-49" value="" style="outlineConnect=0;dashed=0;verticalLabelPosition=bottom;verticalAlign=top;align=center;html=1;shape=mxgraph.aws3.ecs;fillColor=#F58534;gradientColor=none;" parent="V_iwW__XcrFmSabZoZmK-2" vertex="1">
          <mxGeometry x="150" y="220" width="52" height="37" as="geometry" />
        </mxCell>
        <mxCell id="V_iwW__XcrFmSabZoZmK-88" value="ECS" style="text;html=1;strokeColor=none;fillColor=none;align=center;verticalAlign=middle;whiteSpace=wrap;rounded=0;" parent="V_iwW__XcrFmSabZoZmK-2" vertex="1">
          <mxGeometry x="180" y="210" width="60" height="30" as="geometry" />
        </mxCell>
        <mxCell id="V_iwW__XcrFmSabZoZmK-99" value="" style="outlineConnect=0;dashed=0;verticalLabelPosition=bottom;verticalAlign=top;align=center;html=1;shape=mxgraph.aws3.lambda;fillColor=#F58534;gradientColor=none;" parent="V_iwW__XcrFmSabZoZmK-2" vertex="1">
          <mxGeometry x="510" y="280" width="40" height="40" as="geometry" />
        </mxCell>
        <mxCell id="V_iwW__XcrFmSabZoZmK-139" value="" style="endArrow=classic;html=1;rounded=0;entryX=0;entryY=0.5;entryDx=0;entryDy=0;entryPerimeter=0;" parent="V_iwW__XcrFmSabZoZmK-2" target="V_iwW__XcrFmSabZoZmK-138" edge="1">
          <mxGeometry width="50" height="50" relative="1" as="geometry">
            <mxPoint x="140" y="270" as="sourcePoint" />
            <mxPoint x="190" y="220" as="targetPoint" />
          </mxGeometry>
        </mxCell>
        <mxCell id="V_iwW__XcrFmSabZoZmK-144" value="" style="endArrow=classic;html=1;rounded=0;exitX=0.75;exitY=1;exitDx=0;exitDy=0;exitPerimeter=0;entryX=0.115;entryY=0.633;entryDx=0;entryDy=0;entryPerimeter=0;" parent="V_iwW__XcrFmSabZoZmK-2" source="V_iwW__XcrFmSabZoZmK-97" target="V_iwW__XcrFmSabZoZmK-4" edge="1">
          <mxGeometry width="50" height="50" relative="1" as="geometry">
            <mxPoint x="240" y="210" as="sourcePoint" />
            <mxPoint x="290" y="160" as="targetPoint" />
          </mxGeometry>
        </mxCell>
        <mxCell id="V_iwW__XcrFmSabZoZmK-145" value="" style="endArrow=classic;html=1;rounded=0;exitX=0.25;exitY=1;exitDx=0;exitDy=0;exitPerimeter=0;entryX=0.75;entryY=0;entryDx=0;entryDy=0;" parent="V_iwW__XcrFmSabZoZmK-2" source="V_iwW__XcrFmSabZoZmK-97" target="V_iwW__XcrFmSabZoZmK-88" edge="1">
          <mxGeometry width="50" height="50" relative="1" as="geometry">
            <mxPoint x="281" y="90" as="sourcePoint" />
            <mxPoint x="338.6199999999999" y="220" as="targetPoint" />
          </mxGeometry>
        </mxCell>
        <mxCell id="V_iwW__XcrFmSabZoZmK-18" value="" style="outlineConnect=0;dashed=0;verticalLabelPosition=bottom;verticalAlign=top;align=center;html=1;shape=mxgraph.aws3.application_load_balancer;fillColor=#F58534;gradientColor=none;" parent="V_iwW__XcrFmSabZoZmK-2" vertex="1">
          <mxGeometry x="260" y="308" width="60" height="42" as="geometry" />
        </mxCell>
        <mxCell id="V_iwW__XcrFmSabZoZmK-19" value="ALB&lt;br&gt;" style="text;html=1;strokeColor=none;fillColor=none;align=center;verticalAlign=middle;whiteSpace=wrap;rounded=0;" parent="V_iwW__XcrFmSabZoZmK-2" vertex="1">
          <mxGeometry x="260" y="270" width="60" height="30" as="geometry" />
        </mxCell>
        <mxCell id="V_iwW__XcrFmSabZoZmK-21" value="" style="sketch=0;points=[[0,0,0],[0.25,0,0],[0.5,0,0],[0.75,0,0],[1,0,0],[0,1,0],[0.25,1,0],[0.5,1,0],[0.75,1,0],[1,1,0],[0,0.25,0],[0,0.5,0],[0,0.75,0],[1,0.25,0],[1,0.5,0],[1,0.75,0]];outlineConnect=0;fontColor=#232F3E;gradientColor=#F78E04;gradientDirection=north;fillColor=#D05C17;strokeColor=#ffffff;dashed=0;verticalLabelPosition=bottom;verticalAlign=top;align=center;html=1;fontSize=12;fontStyle=0;aspect=fixed;shape=mxgraph.aws4.resourceIcon;resIcon=mxgraph.aws4.fargate;" parent="V_iwW__XcrFmSabZoZmK-2" vertex="1">
          <mxGeometry x="50" y="245" width="40" height="40" as="geometry" />
        </mxCell>
        <mxCell id="V_iwW__XcrFmSabZoZmK-23" value="" style="sketch=0;points=[[0,0,0],[0.25,0,0],[0.5,0,0],[0.75,0,0],[1,0,0],[0,1,0],[0.25,1,0],[0.5,1,0],[0.75,1,0],[1,1,0],[0,0.25,0],[0,0.5,0],[0,0.75,0],[1,0.25,0],[1,0.5,0],[1,0.75,0]];outlineConnect=0;fontColor=#232F3E;gradientColor=#F78E04;gradientDirection=north;fillColor=#D05C17;strokeColor=#ffffff;dashed=0;verticalLabelPosition=bottom;verticalAlign=top;align=center;html=1;fontSize=12;fontStyle=0;aspect=fixed;shape=mxgraph.aws4.resourceIcon;resIcon=mxgraph.aws4.fargate;" parent="V_iwW__XcrFmSabZoZmK-2" vertex="1">
          <mxGeometry x="100" y="245" width="40" height="40" as="geometry" />
        </mxCell>
        <mxCell id="V_iwW__XcrFmSabZoZmK-38" value="" style="endArrow=classic;html=1;rounded=0;entryX=0.5;entryY=1;entryDx=0;entryDy=0;entryPerimeter=0;" parent="V_iwW__XcrFmSabZoZmK-2" target="V_iwW__XcrFmSabZoZmK-23" edge="1">
          <mxGeometry width="50" height="50" relative="1" as="geometry">
            <mxPoint x="120" y="390" as="sourcePoint" />
            <mxPoint x="120" y="300" as="targetPoint" />
          </mxGeometry>
        </mxCell>
        <mxCell id="V_iwW__XcrFmSabZoZmK-85" value="" style="endArrow=none;html=1;rounded=0;" parent="V_iwW__XcrFmSabZoZmK-2" edge="1">
          <mxGeometry width="50" height="50" relative="1" as="geometry">
            <mxPoint x="110" y="248" as="sourcePoint" />
            <mxPoint x="110" y="220" as="targetPoint" />
          </mxGeometry>
        </mxCell>
        <mxCell id="V_iwW__XcrFmSabZoZmK-90" value="Fargate" style="text;html=1;strokeColor=none;fillColor=none;align=center;verticalAlign=middle;whiteSpace=wrap;rounded=0;" parent="V_iwW__XcrFmSabZoZmK-2" vertex="1">
          <mxGeometry x="70" y="300" width="60" height="30" as="geometry" />
        </mxCell>
        <mxCell id="V_iwW__XcrFmSabZoZmK-142" value="Lambda&lt;br&gt;" style="text;html=1;strokeColor=none;fillColor=none;align=center;verticalAlign=middle;whiteSpace=wrap;rounded=0;" parent="V_iwW__XcrFmSabZoZmK-2" vertex="1">
          <mxGeometry x="150" y="320" width="60" height="10" as="geometry" />
        </mxCell>
        <mxCell id="V_iwW__XcrFmSabZoZmK-73" value="" style="sketch=0;points=[[0,0,0],[0.25,0,0],[0.5,0,0],[0.75,0,0],[1,0,0],[0,1,0],[0.25,1,0],[0.5,1,0],[0.75,1,0],[1,1,0],[0,0.25,0],[0,0.5,0],[0,0.75,0],[1,0.25,0],[1,0.5,0],[1,0.75,0]];outlineConnect=0;fontColor=#232F3E;gradientColor=#4D72F3;gradientDirection=north;fillColor=#3334B9;strokeColor=#ffffff;dashed=0;verticalLabelPosition=bottom;verticalAlign=top;align=center;html=1;fontSize=12;fontStyle=0;aspect=fixed;shape=mxgraph.aws4.resourceIcon;resIcon=mxgraph.aws4.rds;" parent="V_iwW__XcrFmSabZoZmK-2" vertex="1">
          <mxGeometry x="50.5" y="150" width="39.5" height="39.5" as="geometry" />
        </mxCell>
        <mxCell id="V_iwW__XcrFmSabZoZmK-78" value="" style="endArrow=classic;html=1;rounded=0;exitX=0.5;exitY=0;exitDx=0;exitDy=0;exitPerimeter=0;entryX=0.5;entryY=1;entryDx=0;entryDy=0;entryPerimeter=0;" parent="V_iwW__XcrFmSabZoZmK-2" source="V_iwW__XcrFmSabZoZmK-21" target="V_iwW__XcrFmSabZoZmK-73" edge="1">
          <mxGeometry width="50" height="50" relative="1" as="geometry">
            <mxPoint x="60" y="212.25" as="sourcePoint" />
            <mxPoint x="80" y="182.25" as="targetPoint" />
          </mxGeometry>
        </mxCell>
        <mxCell id="V_iwW__XcrFmSabZoZmK-53" value="" style="sketch=0;points=[[0,0,0],[0.25,0,0],[0.5,0,0],[0.75,0,0],[1,0,0],[0,1,0],[0.25,1,0],[0.5,1,0],[0.75,1,0],[1,1,0],[0,0.25,0],[0,0.5,0],[0,0.75,0],[1,0.25,0],[1,0.5,0],[1,0.75,0]];outlineConnect=0;fontColor=#232F3E;gradientColor=#4D72F3;gradientDirection=north;fillColor=#3334B9;strokeColor=#ffffff;dashed=0;verticalLabelPosition=bottom;verticalAlign=top;align=center;html=1;fontSize=12;fontStyle=0;aspect=fixed;shape=mxgraph.aws4.resourceIcon;resIcon=mxgraph.aws4.elasticache;" parent="V_iwW__XcrFmSabZoZmK-2" vertex="1">
          <mxGeometry x="130" y="152.75" width="44.5" height="44.5" as="geometry" />
        </mxCell>
        <mxCell id="V_iwW__XcrFmSabZoZmK-155" value="" style="endArrow=classic;html=1;rounded=0;" parent="V_iwW__XcrFmSabZoZmK-2" edge="1">
          <mxGeometry width="50" height="50" relative="1" as="geometry">
            <mxPoint x="90" y="169" as="sourcePoint" />
            <mxPoint x="130" y="169.25" as="targetPoint" />
            <Array as="points" />
          </mxGeometry>
        </mxCell>
        <mxCell id="V_iwW__XcrFmSabZoZmK-156" value="RDS" style="text;html=1;strokeColor=none;fillColor=none;align=center;verticalAlign=middle;whiteSpace=wrap;rounded=0;" parent="V_iwW__XcrFmSabZoZmK-2" vertex="1">
          <mxGeometry x="350" y="167.25" width="60" height="30" as="geometry" />
        </mxCell>
        <mxCell id="V_iwW__XcrFmSabZoZmK-157" value="Elasticache" style="text;html=1;strokeColor=none;fillColor=none;align=center;verticalAlign=middle;whiteSpace=wrap;rounded=0;" parent="V_iwW__XcrFmSabZoZmK-2" vertex="1">
          <mxGeometry x="170" y="129.5" width="60" height="30" as="geometry" />
        </mxCell>
        <mxCell id="V_iwW__XcrFmSabZoZmK-34" value="" style="sketch=0;points=[[0,0,0],[0.25,0,0],[0.5,0,0],[0.75,0,0],[1,0,0],[0,1,0],[0.25,1,0],[0.5,1,0],[0.75,1,0],[1,1,0],[0,0.25,0],[0,0.5,0],[0,0.75,0],[1,0.25,0],[1,0.5,0],[1,0.75,0]];outlineConnect=0;fontColor=#232F3E;gradientColor=#F78E04;gradientDirection=north;fillColor=#D05C17;strokeColor=#ffffff;dashed=0;verticalLabelPosition=bottom;verticalAlign=top;align=center;html=1;fontSize=12;fontStyle=0;aspect=fixed;shape=mxgraph.aws4.resourceIcon;resIcon=mxgraph.aws4.fargate;" parent="V_iwW__XcrFmSabZoZmK-2" vertex="1">
          <mxGeometry x="410" y="250" width="40" height="40" as="geometry" />
        </mxCell>
        <mxCell id="V_iwW__XcrFmSabZoZmK-35" value="" style="sketch=0;points=[[0,0,0],[0.25,0,0],[0.5,0,0],[0.75,0,0],[1,0,0],[0,1,0],[0.25,1,0],[0.5,1,0],[0.75,1,0],[1,1,0],[0,0.25,0],[0,0.5,0],[0,0.75,0],[1,0.25,0],[1,0.5,0],[1,0.75,0]];outlineConnect=0;fontColor=#232F3E;gradientColor=#F78E04;gradientDirection=north;fillColor=#D05C17;strokeColor=#ffffff;dashed=0;verticalLabelPosition=bottom;verticalAlign=top;align=center;html=1;fontSize=12;fontStyle=0;aspect=fixed;shape=mxgraph.aws4.resourceIcon;resIcon=mxgraph.aws4.fargate;" parent="V_iwW__XcrFmSabZoZmK-2" vertex="1">
          <mxGeometry x="460" y="250" width="33" height="33" as="geometry" />
        </mxCell>
        <mxCell id="V_iwW__XcrFmSabZoZmK-50" value="" style="outlineConnect=0;dashed=0;verticalLabelPosition=bottom;verticalAlign=top;align=center;html=1;shape=mxgraph.aws3.ecs;fillColor=#F58534;gradientColor=none;" parent="V_iwW__XcrFmSabZoZmK-2" vertex="1">
          <mxGeometry x="500" y="236.5" width="52" height="37" as="geometry" />
        </mxCell>
        <mxCell id="V_iwW__XcrFmSabZoZmK-89" value="ECS" style="text;html=1;strokeColor=none;fillColor=none;align=center;verticalAlign=middle;whiteSpace=wrap;rounded=0;" parent="V_iwW__XcrFmSabZoZmK-2" vertex="1">
          <mxGeometry x="510" y="210" width="60" height="30" as="geometry" />
        </mxCell>
        <mxCell id="V_iwW__XcrFmSabZoZmK-91" value="Fargate" style="text;html=1;strokeColor=none;fillColor=none;align=center;verticalAlign=middle;whiteSpace=wrap;rounded=0;" parent="V_iwW__XcrFmSabZoZmK-2" vertex="1">
          <mxGeometry x="430" y="290" width="60" height="30" as="geometry" />
        </mxCell>
        <mxCell id="V_iwW__XcrFmSabZoZmK-141" value="" style="endArrow=classic;html=1;rounded=0;entryX=0;entryY=0.21;entryDx=0;entryDy=0;entryPerimeter=0;" parent="V_iwW__XcrFmSabZoZmK-2" target="V_iwW__XcrFmSabZoZmK-99" edge="1">
          <mxGeometry width="50" height="50" relative="1" as="geometry">
            <mxPoint x="490" y="273.5" as="sourcePoint" />
            <mxPoint x="530" y="299.5" as="targetPoint" />
          </mxGeometry>
        </mxCell>
        <mxCell id="V_iwW__XcrFmSabZoZmK-143" value="Lambda&lt;br&gt;" style="text;html=1;strokeColor=none;fillColor=none;align=center;verticalAlign=middle;whiteSpace=wrap;rounded=0;" parent="V_iwW__XcrFmSabZoZmK-2" vertex="1">
          <mxGeometry x="520" y="330" width="60" height="10" as="geometry" />
        </mxCell>
        <mxCell id="V_iwW__XcrFmSabZoZmK-52" value="" style="sketch=0;points=[[0,0,0],[0.25,0,0],[0.5,0,0],[0.75,0,0],[1,0,0],[0,1,0],[0.25,1,0],[0.5,1,0],[0.75,1,0],[1,1,0],[0,0.25,0],[0,0.5,0],[0,0.75,0],[1,0.25,0],[1,0.5,0],[1,0.75,0]];outlineConnect=0;fontColor=#232F3E;gradientColor=#4D72F3;gradientDirection=north;fillColor=#3334B9;strokeColor=#ffffff;dashed=0;verticalLabelPosition=bottom;verticalAlign=top;align=center;html=1;fontSize=12;fontStyle=0;aspect=fixed;shape=mxgraph.aws4.resourceIcon;resIcon=mxgraph.aws4.rds;" parent="V_iwW__XcrFmSabZoZmK-2" vertex="1">
          <mxGeometry x="406.75" y="152.75" width="39.5" height="39.5" as="geometry" />
        </mxCell>
        <mxCell id="V_iwW__XcrFmSabZoZmK-75" value="" style="sketch=0;points=[[0,0,0],[0.25,0,0],[0.5,0,0],[0.75,0,0],[1,0,0],[0,1,0],[0.25,1,0],[0.5,1,0],[0.75,1,0],[1,1,0],[0,0.25,0],[0,0.5,0],[0,0.75,0],[1,0.25,0],[1,0.5,0],[1,0.75,0]];outlineConnect=0;fontColor=#232F3E;gradientColor=#4D72F3;gradientDirection=north;fillColor=#3334B9;strokeColor=#ffffff;dashed=0;verticalLabelPosition=bottom;verticalAlign=top;align=center;html=1;fontSize=12;fontStyle=0;aspect=fixed;shape=mxgraph.aws4.resourceIcon;resIcon=mxgraph.aws4.elasticache;" parent="V_iwW__XcrFmSabZoZmK-2" vertex="1">
          <mxGeometry x="480" y="152.75" width="48.5" height="48.5" as="geometry" />
        </mxCell>
        <mxCell id="V_iwW__XcrFmSabZoZmK-158" value="Elasticache" style="text;html=1;strokeColor=none;fillColor=none;align=center;verticalAlign=middle;whiteSpace=wrap;rounded=0;" parent="V_iwW__XcrFmSabZoZmK-2" vertex="1">
          <mxGeometry x="528.5" y="129.5" width="60" height="30" as="geometry" />
        </mxCell>
        <mxCell id="V_iwW__XcrFmSabZoZmK-162" value="" style="endArrow=classic;html=1;rounded=0;entryX=0.5;entryY=1;entryDx=0;entryDy=0;entryPerimeter=0;" parent="V_iwW__XcrFmSabZoZmK-2" edge="1">
          <mxGeometry width="50" height="50" relative="1" as="geometry">
            <mxPoint x="426" y="250" as="sourcePoint" />
            <mxPoint x="426.25" y="189.5" as="targetPoint" />
          </mxGeometry>
        </mxCell>
        <mxCell id="V_iwW__XcrFmSabZoZmK-164" value="" style="endArrow=none;html=1;rounded=0;" parent="V_iwW__XcrFmSabZoZmK-2" edge="1">
          <mxGeometry width="50" height="50" relative="1" as="geometry">
            <mxPoint x="430" y="220" as="sourcePoint" />
            <mxPoint x="480" y="220" as="targetPoint" />
          </mxGeometry>
        </mxCell>
        <mxCell id="V_iwW__XcrFmSabZoZmK-160" value="RDS" style="text;html=1;strokeColor=none;fillColor=none;align=center;verticalAlign=middle;whiteSpace=wrap;rounded=0;" parent="V_iwW__XcrFmSabZoZmK-2" vertex="1">
          <mxGeometry y="167.25" width="60" height="30" as="geometry" />
        </mxCell>
        <mxCell id="V_iwW__XcrFmSabZoZmK-12" value="" style="verticalLabelPosition=bottom;html=1;verticalAlign=top;align=center;strokeColor=none;fillColor=#00BEF2;shape=mxgraph.azure.computer;pointerEvents=1;" parent="1" vertex="1">
          <mxGeometry x="315" y="600" width="50" height="45" as="geometry" />
        </mxCell>
        <mxCell id="V_iwW__XcrFmSabZoZmK-13" value="&lt;br&gt;Client" style="text;html=1;strokeColor=none;fillColor=none;align=center;verticalAlign=middle;whiteSpace=wrap;rounded=0;" parent="1" vertex="1">
          <mxGeometry x="310" y="600" width="60" height="30" as="geometry" />
        </mxCell>
        <mxCell id="V_iwW__XcrFmSabZoZmK-20" value="" style="endArrow=classic;html=1;rounded=0;" parent="1" edge="1" source="nJT7jwlhTXtfkD8oVDGP-4">
          <mxGeometry width="50" height="50" relative="1" as="geometry">
            <mxPoint x="330" y="470" as="sourcePoint" />
            <mxPoint x="330" y="390" as="targetPoint" />
          </mxGeometry>
        </mxCell>
        <mxCell id="V_iwW__XcrFmSabZoZmK-37" value="" style="endArrow=classic;html=1;rounded=0;entryX=0.5;entryY=1;entryDx=0;entryDy=0;entryPerimeter=0;" parent="1" target="V_iwW__XcrFmSabZoZmK-21" edge="1">
          <mxGeometry width="50" height="50" relative="1" as="geometry">
            <mxPoint x="110" y="440" as="sourcePoint" />
            <mxPoint x="120" y="460" as="targetPoint" />
          </mxGeometry>
        </mxCell>
        <mxCell id="V_iwW__XcrFmSabZoZmK-47" value="" style="endArrow=classic;html=1;rounded=0;entryX=0.145;entryY=0.855;entryDx=0;entryDy=0;entryPerimeter=0;" parent="1" target="V_iwW__XcrFmSabZoZmK-18" edge="1">
          <mxGeometry width="50" height="50" relative="1" as="geometry">
            <mxPoint x="110" y="440" as="sourcePoint" />
            <mxPoint x="310" y="440" as="targetPoint" />
          </mxGeometry>
        </mxCell>
        <mxCell id="V_iwW__XcrFmSabZoZmK-48" value="" style="endArrow=classic;html=1;rounded=0;" parent="1" target="V_iwW__XcrFmSabZoZmK-18" edge="1">
          <mxGeometry width="50" height="50" relative="1" as="geometry">
            <mxPoint x="530" y="440" as="sourcePoint" />
            <mxPoint x="370" y="440" as="targetPoint" />
          </mxGeometry>
        </mxCell>
        <mxCell id="V_iwW__XcrFmSabZoZmK-81" value="" style="endArrow=none;html=1;rounded=0;" parent="1" edge="1">
          <mxGeometry width="50" height="50" relative="1" as="geometry">
            <mxPoint x="110" y="260" as="sourcePoint" />
            <mxPoint x="150" y="260" as="targetPoint" />
          </mxGeometry>
        </mxCell>
        <mxCell id="V_iwW__XcrFmSabZoZmK-138" value="" style="outlineConnect=0;dashed=0;verticalLabelPosition=bottom;verticalAlign=top;align=center;html=1;shape=mxgraph.aws3.lambda;fillColor=#F58534;gradientColor=none;" parent="1" vertex="1">
          <mxGeometry x="220" y="310" width="44" height="52" as="geometry" />
        </mxCell>
        <mxCell id="V_iwW__XcrFmSabZoZmK-166" value="" style="endArrow=none;html=1;rounded=0;entryX=0.5;entryY=0;entryDx=0;entryDy=0;entryPerimeter=0;" parent="1" target="V_iwW__XcrFmSabZoZmK-35" edge="1">
          <mxGeometry width="50" height="50" relative="1" as="geometry">
            <mxPoint x="517" y="260" as="sourcePoint" />
            <mxPoint x="510" y="270" as="targetPoint" />
          </mxGeometry>
        </mxCell>
        <mxCell id="nJT7jwlhTXtfkD8oVDGP-4" value="Internet&#xa;gateway" style="sketch=0;outlineConnect=0;fontColor=#232F3E;gradientColor=none;strokeColor=#232F3E;fillColor=#ffffff;dashed=0;verticalLabelPosition=bottom;verticalAlign=top;align=center;html=1;fontSize=12;fontStyle=0;aspect=fixed;shape=mxgraph.aws4.resourceIcon;resIcon=mxgraph.aws4.internet_gateway;" vertex="1" parent="1">
          <mxGeometry x="300" y="468" width="65" height="65" as="geometry" />
        </mxCell>
        <mxCell id="nJT7jwlhTXtfkD8oVDGP-6" value="" style="endArrow=classic;html=1;rounded=0;exitX=0.5;exitY=0;exitDx=0;exitDy=0;" edge="1" parent="1" source="V_iwW__XcrFmSabZoZmK-13">
          <mxGeometry width="50" height="50" relative="1" as="geometry">
            <mxPoint x="390" y="600" as="sourcePoint" />
            <mxPoint x="340" y="530" as="targetPoint" />
          </mxGeometry>
        </mxCell>
        <mxCell id="nJT7jwlhTXtfkD8oVDGP-7" value="AWS Cloud" style="points=[[0,0],[0.25,0],[0.5,0],[0.75,0],[1,0],[1,0.25],[1,0.5],[1,0.75],[1,1],[0.75,1],[0.5,1],[0.25,1],[0,1],[0,0.75],[0,0.5],[0,0.25]];outlineConnect=0;gradientColor=none;html=1;whiteSpace=wrap;fontSize=12;fontStyle=0;container=1;pointerEvents=0;collapsible=0;recursiveResize=0;shape=mxgraph.aws4.group;grIcon=mxgraph.aws4.group_aws_cloud_alt;strokeColor=#232F3E;fillColor=none;verticalAlign=top;align=left;spacingLeft=30;fontColor=#232F3E;dashed=0;" vertex="1" parent="1">
          <mxGeometry x="5" width="715" height="450" as="geometry" />
        </mxCell>
      </root>
    </mxGraphModel>
  </diagram>
</mxfile>
